<svg width="220" height="53" viewBox="0 0 220 53" fill="none" xmlns="http://www.w3.org/2000/svg">
<rect width="220" height="53" rx="10" fill="#CCDFFF" fill-opacity="0.4"/>
<path fill-rule="evenodd" clip-rule="evenodd" d="M33.64 26.7047C33.64 26.0665 33.5827 25.4529 33.4764 24.8638H25V28.3451H29.8436C29.635 29.4701 29.0009 30.4233 28.0477 31.0615V33.3197H30.9564C32.6582 31.7529 33.64 29.4456 33.64 26.7047Z" fill="#4285F4"/>
<path fill-rule="evenodd" clip-rule="evenodd" d="M24.9998 35.5C27.4298 35.5 29.467 34.6941 30.9561 33.3195L28.0475 31.0613C27.2416 31.6013 26.2107 31.9204 24.9998 31.9204C22.6557 31.9204 20.6716 30.3372 19.9638 28.21H16.957V30.5418C18.4379 33.4831 21.4816 35.5 24.9998 35.5Z" fill="#34A853"/>
<path fill-rule="evenodd" clip-rule="evenodd" d="M19.9641 28.2098C19.7841 27.6698 19.6818 27.093 19.6818 26.4998C19.6818 25.9066 19.7841 25.3298 19.9641 24.7898V22.458H16.9573C16.3477 23.673 16 25.0476 16 26.4998C16 27.9521 16.3477 29.3266 16.9573 30.5416L19.9641 28.2098Z" fill="#FBBC05"/>
<path fill-rule="evenodd" clip-rule="evenodd" d="M24.9998 21.0795C26.3211 21.0795 27.5075 21.5336 28.4402 22.4255L31.0216 19.8441C29.4629 18.3918 27.4257 17.5 24.9998 17.5C21.4816 17.5 18.4379 19.5168 16.957 22.4582L19.9638 24.79C20.6716 22.6627 22.6557 21.0795 24.9998 21.0795Z" fill="#EA4335"/>
<path d="M51.8906 26.1875V30.5312C51.7292 30.7448 51.4766 30.9792 51.1328 31.2344C50.7943 31.4844 50.3438 31.7005 49.7812 31.8828C49.2188 32.0651 48.5182 32.1562 47.6797 32.1562C46.9661 32.1562 46.3125 32.0365 45.7188 31.7969C45.125 31.5521 44.612 31.1953 44.1797 30.7266C43.7526 30.2578 43.4219 29.6875 43.1875 29.0156C42.9531 28.3385 42.8359 27.5677 42.8359 26.7031V25.9141C42.8359 25.0547 42.9427 24.2891 43.1562 23.6172C43.375 22.9401 43.6875 22.3672 44.0938 21.8984C44.5 21.4297 44.9896 21.0755 45.5625 20.8359C46.1406 20.5911 46.7943 20.4688 47.5234 20.4688C48.4557 20.4688 49.2266 20.625 49.8359 20.9375C50.4505 21.2448 50.9245 21.6719 51.2578 22.2188C51.5911 22.7656 51.8021 23.3906 51.8906 24.0938H49.9688C49.9062 23.6979 49.7839 23.3438 49.6016 23.0312C49.4245 22.7188 49.1693 22.474 48.8359 22.2969C48.5078 22.1146 48.0807 22.0234 47.5547 22.0234C47.1016 22.0234 46.7031 22.1094 46.3594 22.2812C46.0156 22.4531 45.7292 22.7057 45.5 23.0391C45.276 23.3724 45.1068 23.7786 44.9922 24.2578C44.8776 24.737 44.8203 25.2839 44.8203 25.8984V26.7031C44.8203 27.3281 44.8854 27.8828 45.0156 28.3672C45.151 28.8516 45.3438 29.2604 45.5938 29.5938C45.849 29.9271 46.1589 30.1797 46.5234 30.3516C46.888 30.5182 47.2995 30.6016 47.7578 30.6016C48.2057 30.6016 48.5729 30.5651 48.8594 30.4922C49.1458 30.4141 49.3724 30.3229 49.5391 30.2188C49.7109 30.1094 49.8438 30.0052 49.9375 29.9062V27.6484H47.5703V26.1875H51.8906ZM53.5156 27.8672V27.6875C53.5156 27.0781 53.6042 26.513 53.7812 25.9922C53.9583 25.4661 54.2135 25.0104 54.5469 24.625C54.8854 24.2344 55.2969 23.9323 55.7812 23.7188C56.2708 23.5 56.8229 23.3906 57.4375 23.3906C58.0573 23.3906 58.6094 23.5 59.0938 23.7188C59.5833 23.9323 59.9974 24.2344 60.3359 24.625C60.6745 25.0104 60.9323 25.4661 61.1094 25.9922C61.2865 26.513 61.375 27.0781 61.375 27.6875V27.8672C61.375 28.4766 61.2865 29.0417 61.1094 29.5625C60.9323 30.0833 60.6745 30.5391 60.3359 30.9297C59.9974 31.3151 59.5859 31.6172 59.1016 31.8359C58.6172 32.0495 58.0677 32.1562 57.4531 32.1562C56.8333 32.1562 56.2786 32.0495 55.7891 31.8359C55.3047 31.6172 54.8932 31.3151 54.5547 30.9297C54.2161 30.5391 53.9583 30.0833 53.7812 29.5625C53.6042 29.0417 53.5156 28.4766 53.5156 27.8672ZM55.3984 27.6875V27.8672C55.3984 28.2474 55.4375 28.6068 55.5156 28.9453C55.5938 29.2839 55.7161 29.5807 55.8828 29.8359C56.0495 30.0911 56.263 30.2917 56.5234 30.4375C56.7839 30.5833 57.0938 30.6562 57.4531 30.6562C57.8021 30.6562 58.1042 30.5833 58.3594 30.4375C58.6198 30.2917 58.8333 30.0911 59 29.8359C59.1667 29.5807 59.2891 29.2839 59.3672 28.9453C59.4505 28.6068 59.4922 28.2474 59.4922 27.8672V27.6875C59.4922 27.3125 59.4505 26.9583 59.3672 26.625C59.2891 26.2865 59.1641 25.987 58.9922 25.7266C58.8255 25.4661 58.612 25.263 58.3516 25.1172C58.0964 24.9661 57.7917 24.8906 57.4375 24.8906C57.0833 24.8906 56.776 24.9661 56.5156 25.1172C56.2604 25.263 56.0495 25.4661 55.8828 25.7266C55.7161 25.987 55.5938 26.2865 55.5156 26.625C55.4375 26.9583 55.3984 27.3125 55.3984 27.6875ZM62.5938 27.8672V27.6875C62.5938 27.0781 62.6823 26.513 62.8594 25.9922C63.0365 25.4661 63.2917 25.0104 63.625 24.625C63.9635 24.2344 64.375 23.9323 64.8594 23.7188C65.349 23.5 65.901 23.3906 66.5156 23.3906C67.1354 23.3906 67.6875 23.5 68.1719 23.7188C68.6615 23.9323 69.0755 24.2344 69.4141 24.625C69.7526 25.0104 70.0104 25.4661 70.1875 25.9922C70.3646 26.513 70.4531 27.0781 70.4531 27.6875V27.8672C70.4531 28.4766 70.3646 29.0417 70.1875 29.5625C70.0104 30.0833 69.7526 30.5391 69.4141 30.9297C69.0755 31.3151 68.6641 31.6172 68.1797 31.8359C67.6953 32.0495 67.1458 32.1562 66.5312 32.1562C65.9115 32.1562 65.3568 32.0495 64.8672 31.8359C64.3828 31.6172 63.9714 31.3151 63.6328 30.9297C63.2943 30.5391 63.0365 30.0833 62.8594 29.5625C62.6823 29.0417 62.5938 28.4766 62.5938 27.8672ZM64.4766 27.6875V27.8672C64.4766 28.2474 64.5156 28.6068 64.5938 28.9453C64.6719 29.2839 64.7943 29.5807 64.9609 29.8359C65.1276 30.0911 65.3411 30.2917 65.6016 30.4375C65.862 30.5833 66.1719 30.6562 66.5312 30.6562C66.8802 30.6562 67.1823 30.5833 67.4375 30.4375C67.6979 30.2917 67.9115 30.0911 68.0781 29.8359C68.2448 29.5807 68.3672 29.2839 68.4453 28.9453C68.5286 28.6068 68.5703 28.2474 68.5703 27.8672V27.6875C68.5703 27.3125 68.5286 26.9583 68.4453 26.625C68.3672 26.2865 68.2422 25.987 68.0703 25.7266C67.9036 25.4661 67.6901 25.263 67.4297 25.1172C67.1745 24.9661 66.8698 24.8906 66.5156 24.8906C66.1615 24.8906 65.8542 24.9661 65.5938 25.1172C65.3385 25.263 65.1276 25.4661 64.9609 25.7266C64.7943 25.987 64.6719 26.2865 64.5938 26.625C64.5156 26.9583 64.4766 27.3125 64.4766 27.6875ZM77.4453 23.5469H79.1562V31.7656C79.1562 32.526 78.9948 33.1719 78.6719 33.7031C78.349 34.2344 77.8984 34.638 77.3203 34.9141C76.7422 35.1953 76.0729 35.3359 75.3125 35.3359C74.9896 35.3359 74.6302 35.2891 74.2344 35.1953C73.8438 35.1016 73.4635 34.9505 73.0938 34.7422C72.7292 34.5391 72.4245 34.2708 72.1797 33.9375L73.0625 32.8281C73.3646 33.1875 73.6979 33.4505 74.0625 33.6172C74.4271 33.7839 74.8099 33.8672 75.2109 33.8672C75.6432 33.8672 76.0104 33.7865 76.3125 33.625C76.6198 33.4688 76.8568 33.237 77.0234 32.9297C77.1901 32.6224 77.2734 32.2474 77.2734 31.8047V25.4609L77.4453 23.5469ZM71.7031 27.8672V27.7031C71.7031 27.0625 71.7812 26.4792 71.9375 25.9531C72.0938 25.4219 72.3177 24.9661 72.6094 24.5859C72.901 24.2005 73.2552 23.9062 73.6719 23.7031C74.0885 23.4948 74.5599 23.3906 75.0859 23.3906C75.6328 23.3906 76.099 23.4896 76.4844 23.6875C76.875 23.8854 77.2005 24.1693 77.4609 24.5391C77.7214 24.9036 77.9245 25.3411 78.0703 25.8516C78.2214 26.3568 78.3333 26.9193 78.4062 27.5391V28.0625C78.3385 28.6667 78.224 29.2188 78.0625 29.7188C77.901 30.2188 77.6875 30.651 77.4219 31.0156C77.1562 31.3802 76.8281 31.6615 76.4375 31.8594C76.0521 32.0573 75.5964 32.1562 75.0703 32.1562C74.5547 32.1562 74.0885 32.0495 73.6719 31.8359C73.2604 31.6224 72.9062 31.3229 72.6094 30.9375C72.3177 30.5521 72.0938 30.099 71.9375 29.5781C71.7812 29.0521 71.7031 28.4818 71.7031 27.8672ZM73.5859 27.7031V27.8672C73.5859 28.2526 73.6224 28.612 73.6953 28.9453C73.7734 29.2786 73.8906 29.5729 74.0469 29.8281C74.2083 30.0781 74.4115 30.276 74.6562 30.4219C74.9062 30.5625 75.2005 30.6328 75.5391 30.6328C75.9818 30.6328 76.3438 30.5391 76.625 30.3516C76.9115 30.1641 77.1302 29.9115 77.2812 29.5938C77.4375 29.2708 77.5469 28.9115 77.6094 28.5156V27.1016C77.5781 26.7943 77.513 26.5078 77.4141 26.2422C77.3203 25.9766 77.1927 25.7448 77.0312 25.5469C76.8698 25.3438 76.6667 25.1875 76.4219 25.0781C76.1771 24.9635 75.888 24.9062 75.5547 24.9062C75.2161 24.9062 74.9219 24.9792 74.6719 25.125C74.4219 25.2708 74.2161 25.4714 74.0547 25.7266C73.8984 25.9818 73.7812 26.2786 73.7031 26.6172C73.625 26.9557 73.5859 27.3177 73.5859 27.7031ZM83.125 20V32H81.2344V20H83.125ZM88.9141 32.1562C88.2891 32.1562 87.724 32.0547 87.2188 31.8516C86.7188 31.6432 86.2917 31.3542 85.9375 30.9844C85.5885 30.6146 85.3203 30.1797 85.1328 29.6797C84.9453 29.1797 84.8516 28.6406 84.8516 28.0625V27.75C84.8516 27.0885 84.9479 26.4896 85.1406 25.9531C85.3333 25.4167 85.6016 24.9583 85.9453 24.5781C86.2891 24.1927 86.6953 23.8984 87.1641 23.6953C87.6328 23.4922 88.1406 23.3906 88.6875 23.3906C89.2917 23.3906 89.8203 23.4922 90.2734 23.6953C90.7266 23.8984 91.1016 24.1849 91.3984 24.5547C91.7005 24.9193 91.9245 25.3542 92.0703 25.8594C92.2214 26.3646 92.2969 26.9219 92.2969 27.5312V28.3359H85.7656V26.9844H90.4375V26.8359C90.4271 26.4974 90.3594 26.1797 90.2344 25.8828C90.1146 25.5859 89.9297 25.3464 89.6797 25.1641C89.4297 24.9818 89.0964 24.8906 88.6797 24.8906C88.3672 24.8906 88.0885 24.9583 87.8438 25.0938C87.6042 25.224 87.4036 25.4141 87.2422 25.6641C87.0807 25.9141 86.9557 26.2161 86.8672 26.5703C86.7839 26.9193 86.7422 27.3125 86.7422 27.75V28.0625C86.7422 28.4323 86.7917 28.776 86.8906 29.0938C86.9948 29.4062 87.1458 29.6797 87.3438 29.9141C87.5417 30.1484 87.7812 30.3333 88.0625 30.4688C88.3438 30.599 88.6641 30.6641 89.0234 30.6641C89.4766 30.6641 89.8802 30.5729 90.2344 30.3906C90.5885 30.2083 90.8958 29.9505 91.1562 29.6172L92.1484 30.5781C91.9661 30.8438 91.7292 31.099 91.4375 31.3438C91.1458 31.5833 90.7891 31.7786 90.3672 31.9297C89.9505 32.0807 89.4661 32.1562 88.9141 32.1562ZM103.181 22.8H106.397V23.872H103.181V22.8ZM103.069 26.432H106.365V27.504H103.069V26.432ZM108.589 18.784H109.869V33.248H108.589V18.784ZM105.693 19.152H106.941V32.512H105.693V19.152ZM102.461 20.608H103.741C103.741 24.4 102.221 27.808 98.3333 30.128L97.5653 29.184C100.941 27.136 102.461 24.256 102.461 20.848V20.608ZM98.2053 20.608H102.989V21.696H98.2053V20.608ZM120.012 22.528H123.276V23.632H120.012V22.528ZM122.86 18.784H124.188V27.408H122.86V18.784ZM119.436 27.84C122.412 27.84 124.252 28.848 124.252 30.544C124.252 32.256 122.412 33.232 119.436 33.232C116.444 33.232 114.604 32.256 114.604 30.544C114.604 28.848 116.444 27.84 119.436 27.84ZM119.436 28.88C117.26 28.88 115.932 29.488 115.932 30.544C115.932 31.584 117.26 32.192 119.436 32.192C121.612 32.192 122.94 31.584 122.94 30.544C122.94 29.488 121.612 28.88 119.436 28.88ZM115.98 20.24H117.068V21.408C117.068 24.08 115.436 26.368 113.036 27.264L112.348 26.208C114.492 25.424 115.98 23.488 115.98 21.408V20.24ZM116.236 20.24H117.308V21.408C117.308 23.28 118.716 25.072 120.812 25.808L120.14 26.864C117.788 26.016 116.236 23.84 116.236 21.408V20.24ZM112.748 19.84H120.476V20.928H112.748V19.84ZM133.547 19.696C136.555 19.696 138.795 21.296 138.795 23.696C138.795 26.112 136.555 27.696 133.547 27.696C130.539 27.696 128.283 26.112 128.283 23.696C128.283 21.296 130.539 19.696 133.547 19.696ZM133.547 20.784C131.259 20.784 129.563 21.952 129.563 23.696C129.563 25.424 131.259 26.608 133.547 26.608C135.835 26.608 137.531 25.424 137.531 23.696C137.531 21.952 135.835 20.784 133.547 20.784ZM127.019 30.224H140.123V31.344H127.019V30.224ZM141.738 30.368H154.842V31.472H141.738V30.368ZM147.594 27.264H148.922V30.832H147.594V27.264ZM143.322 19.856H153.226V24.24H144.682V27.136H143.37V23.168H151.914V20.928H143.322V19.856ZM143.37 26.576H153.562V27.664H143.37V26.576ZM160.441 30.368H173.545V31.472H160.441V30.368ZM166.297 27.264H167.625V30.832H166.297V27.264ZM162.025 19.856H171.929V24.24H163.385V27.136H162.073V23.168H170.617V20.928H162.025V19.856ZM162.073 26.576H172.265V27.664H162.073V26.576ZM176.567 20.32H185.879V21.392H176.567V20.32ZM175.159 30.032H188.231V31.136H175.159V30.032ZM185.175 20.32H186.471V21.76C186.471 23.616 186.471 25.68 185.927 28.8L184.599 28.672C185.175 25.712 185.175 23.552 185.175 21.76V20.32ZM200.39 18.8H201.734V29.36H200.39V18.8ZM192.438 31.84H202.166V32.928H192.438V31.84ZM192.438 28.272H193.75V32.208H192.438V28.272ZM193.974 19.792C196.134 19.792 197.734 21.264 197.734 23.36C197.734 25.44 196.134 26.928 193.974 26.928C191.814 26.928 190.198 25.44 190.198 23.36C190.198 21.264 191.814 19.792 193.974 19.792ZM193.974 20.944C192.566 20.944 191.494 21.936 191.494 23.36C191.494 24.768 192.566 25.76 193.974 25.76C195.382 25.76 196.454 24.768 196.454 23.36C196.454 21.936 195.382 20.944 193.974 20.944Z" fill="black"/>
</svg>
